<svg version="1.1" id="Layer_1" xmlns="http://www.w3.org/2000/svg" xmlns:xlink="http://www.w3.org/1999/xlink" x="0px" y="0px"
	 width="100%" viewBox="0 0 1600 800" enable-background="new 0 0 1600 800" xml:space="preserve">
<path fill="#000000" opacity="1.000000" stroke="none" 
	d="
M1067.000000,801.000000 
	C711.333313,801.000000 356.166656,801.000000 1.000000,801.000000 
	C1.000000,534.333313 1.000000,267.666656 1.000000,1.000000 
	C534.333313,1.000000 1067.666626,1.000000 1601.000000,1.000000 
	C1601.000000,267.666656 1601.000000,534.333313 1601.000000,801.000000 
	C1423.166626,801.000000 1245.333374,801.000000 1067.000000,801.000000 
M478.636444,319.652985 
	C501.791016,326.077881 517.497498,340.591827 525.831177,363.111267 
	C528.374756,369.984589 529.569580,370.863708 536.735474,370.897552 
	C546.229980,370.942413 555.725098,371.009796 565.219055,370.944794 
	C570.340881,370.909729 571.734863,369.148499 570.963684,364.068176 
	C570.739746,362.592651 570.343567,361.142120 570.002869,359.685577 
	C558.964478,312.491882 517.879883,277.865631 471.033203,276.836884 
	C448.556458,276.343323 426.059875,276.722107 403.572388,276.770325 
	C398.129883,276.781982 395.966705,278.904053 395.899933,284.276031 
	C395.798553,292.436707 395.852783,300.599609 395.873138,308.761505 
	C395.889374,315.277618 397.961823,317.329163 404.571167,317.332886 
	C418.230133,317.340576 431.895691,317.046753 445.545959,317.384552 
	C456.326538,317.651337 467.088379,318.676971 478.636444,319.652985 
M748.901489,320.733154 
	C740.970398,319.048401 733.084961,316.228577 725.099060,315.907654 
	C706.644775,315.166016 688.141846,315.629639 669.658630,315.634247 
	C668.878784,315.634460 668.098999,315.934174 667.278992,316.102631 
	C667.278992,360.877533 667.278992,405.447937 667.278992,450.234833 
	C668.615295,450.402679 669.739136,450.664948 670.863342,450.666901 
	C688.846863,450.698486 706.837585,451.012970 724.811829,450.605255 
	C739.855347,450.264038 753.654663,445.533051 765.234863,435.677734 
	C783.451538,420.174469 789.807861,399.764557 787.987976,376.619629 
	C785.962036,350.853973 773.709656,331.748230 748.901489,320.733154 
M396.471832,488.373749 
	C396.232544,497.664215 395.909973,506.953522 395.782715,516.245483 
	C395.695099,522.641296 397.654572,524.485107 404.120331,524.493408 
	C424.440033,524.519470 444.759735,524.510132 465.079407,524.536316 
	C514.390625,524.599915 559.262085,488.769958 570.039673,440.711182 
	C571.544312,434.001953 570.554260,432.778900 563.503601,432.763031 
	C554.342896,432.742462 545.173645,432.990692 536.024292,432.667297 
	C530.251892,432.463257 527.240662,434.935333 525.256287,440.175049 
	C515.153564,466.851196 489.586212,484.365173 461.155640,484.381073 
	C442.335205,484.391602 423.512787,484.300476 404.696533,484.592926 
	C402.085114,484.633514 399.503906,486.618713 396.471832,488.373749 
M914.784607,440.668976 
	C937.580017,455.214661 961.453003,456.469635 985.642212,445.139404 
	C1000.706787,438.083069 1010.437134,425.812378 1015.630188,409.178284 
	C1008.815308,408.774353 1002.861023,408.233154 996.905090,408.214081 
	C995.581665,408.209839 993.753174,409.760315 993.000183,411.077057 
	C980.592102,432.775574 952.645630,438.512665 931.327820,427.019775 
	C912.133118,416.671448 903.728210,397.387360 906.985474,373.468872 
	C909.651855,353.889099 924.635864,338.520386 945.295898,334.537689 
	C963.248169,331.076935 984.355835,338.132141 993.100159,355.596222 
	C993.690186,356.774567 995.430176,358.141479 996.619385,358.126953 
	C1002.716736,358.052368 1008.808838,357.553741 1016.859253,357.090790 
	C1012.560547,349.459259 1009.625427,342.570465 1005.247864,336.770264 
	C987.212036,312.872925 951.535095,307.864044 925.713196,319.515564 
	C901.399109,330.486755 887.737183,349.952881 885.522644,376.552032 
	C883.335876,402.817444 892.129761,424.650574 914.784607,440.668976 
M1205.047607,354.490936 
	C1185.680054,347.370056 1165.126953,353.790558 1153.527954,370.785706 
	C1143.691528,385.198425 1141.982178,401.188599 1146.240112,417.630127 
	C1150.480835,434.004944 1160.700684,445.899719 1177.227661,450.654083 
	C1193.555786,455.351227 1208.563599,452.309357 1220.756226,439.528290 
	C1221.259033,439.001282 1221.877319,438.584625 1223.149414,437.529968 
	C1223.149414,442.351135 1223.149414,446.255157 1223.149414,450.381226 
	C1229.806030,450.381226 1236.029175,450.381226 1242.410400,450.381226 
	C1242.410400,405.196320 1242.410400,360.337616 1242.410400,315.499329 
	C1235.818848,315.499329 1229.579712,315.499329 1222.879639,315.499329 
	C1222.879639,332.563354 1222.879639,349.283112 1222.879639,365.756470 
	C1217.018921,361.997131 1211.391235,358.387299 1205.047607,354.490936 
M1328.348022,356.104584 
	C1314.444214,350.107971 1300.458862,349.964172 1286.716919,356.286896 
	C1260.833252,368.195892 1250.841064,404.451233 1266.274902,429.698395 
	C1277.287720,447.713501 1297.604004,456.140808 1318.919067,451.395416 
	C1333.901611,448.059906 1345.302979,440.245605 1351.296143,424.772034 
	C1346.028687,423.733246 1341.114990,423.026093 1336.361084,421.731689 
	C1333.351929,420.912323 1331.997681,421.936890 1330.358154,424.283722 
	C1323.819946,433.642914 1310.507446,437.228302 1298.495117,433.148285 
	C1287.128052,429.287445 1279.712524,419.131805 1279.930542,407.087830 
	C1304.447998,407.087830 1328.984619,407.087830 1353.730225,407.087830 
	C1355.170288,384.981842 1348.734985,367.466919 1328.348022,356.104584 
M1046.328003,441.179260 
	C1065.286865,456.511200 1092.092773,455.406799 1108.409790,443.938110 
	C1126.829346,430.991638 1134.613525,406.929077 1126.537842,384.211609 
	C1114.514526,350.388397 1073.855835,342.878967 1048.311523,361.674988 
	C1024.066650,379.514709 1020.883362,420.015808 1046.328003,441.179260 
M530.793640,386.951660 
	C530.782349,396.609467 530.826782,406.267761 530.735291,415.924805 
	C530.692444,420.452057 532.776184,422.838867 537.272949,422.868866 
	C547.263306,422.935486 557.254761,422.950165 567.244873,422.870880 
	C571.118530,422.840149 573.799438,420.681061 573.889954,416.854034 
	C574.126099,406.870361 574.048950,396.873993 573.845093,386.887817 
	C573.766357,383.032440 571.528687,380.807556 567.429688,380.805573 
	C557.439026,380.800690 547.448425,380.748962 537.457764,380.731567 
	C533.828613,380.725250 531.409607,382.272644 530.793640,386.951660 
M382.297119,307.092010 
	C382.289795,299.272980 382.271332,291.453918 382.279480,283.634888 
	C382.284180,279.109406 379.954315,276.860809 375.529297,276.831726 
	C366.711975,276.773773 357.893005,276.722290 349.076874,276.835968 
	C343.878052,276.902954 341.854645,279.034515 341.826721,284.158142 
	C341.781372,292.476379 341.804810,300.795258 341.842255,309.113678 
	C341.869568,315.172363 343.886414,317.211884 349.888397,317.225250 
	C357.707458,317.242676 365.526672,317.202911 373.345795,317.171204 
	C380.721985,317.141296 382.231720,315.584534 382.297119,307.092010 
M382.291199,497.686707 
	C382.289948,496.520569 382.292847,495.354401 382.286743,494.188293 
	C382.247131,486.600708 380.486145,484.851715 372.837372,484.841919 
	C365.007812,484.831879 357.177307,484.765747 349.348969,484.863159 
	C343.943054,484.930420 341.881836,487.087677 341.842804,492.504883 
	C341.785248,500.500824 341.787140,508.497345 341.802917,516.493591 
	C341.815002,522.627197 343.571777,524.413879 349.897247,524.466187 
	C358.225769,524.535095 366.555847,524.509827 374.884460,524.435608 
	C380.026703,524.389771 382.063049,522.393188 382.188354,517.131714 
	C382.335083,510.971161 382.266388,504.805481 382.291199,497.686707 
M335.500092,422.819244 
	C339.329987,422.814270 343.160553,422.761749 346.989594,422.816711 
	C351.479187,422.881134 354.053314,420.526550 354.200897,416.264923 
	C354.477325,408.283417 354.433960,400.283508 354.259064,392.297028 
	C354.178894,388.636414 352.086487,386.491913 348.175690,386.504456 
	C339.517242,386.532227 330.857941,386.459717 322.200592,386.562958 
	C318.387878,386.608368 316.437012,388.749176 316.450165,392.595673 
	C316.476868,400.420990 316.490387,408.246429 316.546539,416.071564 
	C316.577026,420.322784 318.943420,422.514648 323.019135,422.727203 
	C326.839478,422.926361 330.676788,422.799744 335.500092,422.819244 
M808.123657,392.669403 
	C808.123657,396.597595 808.123657,400.525818 808.123657,404.601685 
	C827.477356,404.601685 846.171021,404.601685 864.998169,404.601685 
	C864.998169,398.227448 864.998169,392.150208 864.998169,385.865784 
	C845.973267,385.865784 827.294800,385.865784 808.127258,385.865784 
	C808.127258,388.140442 808.127258,389.936829 808.123657,392.669403 
M395.484161,465.607544 
	C395.670502,456.987000 396.180725,448.350647 395.760406,439.759766 
	C395.679688,438.110199 392.035339,435.471313 389.874939,435.299316 
	C382.587341,434.719116 375.227631,435.058350 367.895599,435.018341 
	C363.509766,434.994415 361.525574,437.283875 361.539642,441.520386 
	C361.562836,448.518982 361.617706,455.517517 361.638580,462.516113 
	C361.650299,466.451843 363.610443,468.248383 367.525848,468.216370 
	C374.857513,468.156433 382.193420,468.319397 389.519684,468.111298 
	C391.346832,468.059448 393.143829,466.946472 395.484161,465.607544 
M368.922119,340.082550 
	C364.524078,339.832092 361.724548,341.743500 361.616425,346.271912 
	C361.449402,353.264252 361.515869,360.267639 361.698792,367.260712 
	C361.797241,371.024261 363.974976,372.939240 367.831451,372.923920 
	C375.162079,372.894836 382.493073,372.960052 389.823761,372.935425 
	C393.843414,372.921906 396.039185,370.816650 396.100861,366.815857 
	C396.203644,360.152954 396.155975,353.487610 396.153809,346.823273 
	C396.152344,342.291565 393.816620,340.114563 389.332520,340.114502 
	C382.834869,340.114410 376.337219,340.097534 368.922119,340.082550 
M312.386719,446.658173 
	C312.369690,445.495575 312.355530,444.332916 312.335114,443.170380 
	C312.215912,436.377808 310.937836,435.097412 304.077179,435.072052 
	C297.765442,435.048706 291.453186,435.058441 285.141693,435.114929 
	C281.384186,435.148560 279.211060,436.988770 279.185394,440.878693 
	C279.137146,448.186920 279.088623,455.496368 279.172516,462.803741 
	C279.213562,466.379456 281.167725,468.264160 284.818420,468.253815 
	C291.960724,468.233551 299.103058,468.217072 306.245361,468.202515 
	C310.330383,468.194183 312.362213,466.119385 312.381165,462.067413 
	C312.403717,457.250793 312.391022,452.433990 312.386719,446.658173 
M285.033936,340.119293 
	C280.825623,340.390839 278.759338,342.539307 278.814484,346.851471 
	C278.899506,353.499847 278.829346,360.150238 278.825317,366.799774 
	C278.822845,370.875946 280.825195,372.930939 284.936218,372.921722 
	C291.918152,372.906036 298.900177,372.904327 305.882111,372.921387 
	C310.154755,372.931824 312.362366,370.882019 312.363525,366.561646 
	C312.365234,360.078522 312.441101,353.594238 312.344055,347.112610 
	C312.268768,342.085419 310.359253,340.235687 305.380951,340.183472 
	C298.898285,340.115448 292.414703,340.135162 285.033936,340.119293 
M1236.682251,498.104828 
	C1236.757446,497.544678 1236.832520,496.984528 1237.046265,495.392578 
	C1239.263062,499.820160 1240.935791,503.354950 1242.807617,506.780884 
	C1243.363281,507.797943 1244.663452,509.326447 1245.298096,509.183289 
	C1246.472412,508.918335 1247.745605,507.785126 1248.378418,506.672729 
	C1250.194336,503.480347 1251.710449,500.117432 1253.344360,496.821564 
	C1253.783081,496.935730 1254.221680,497.049896 1254.660400,497.164062 
	C1254.660400,501.408844 1254.785156,505.658478 1254.621216,509.896912 
	C1254.488403,513.327698 1255.862183,513.950989 1258.660400,512.770020 
	C1258.660400,504.014923 1258.660400,495.446228 1258.660400,486.974579 
	C1255.160156,485.669525 1253.522095,487.068176 1252.238281,489.961212 
	C1250.374634,494.160645 1248.123779,498.188232 1245.625488,503.100311 
	C1243.193481,498.254822 1240.876465,494.285767 1239.182373,490.066620 
	C1237.727173,486.443085 1235.617554,485.806458 1232.288696,487.123993 
	C1232.288696,495.706818 1232.288696,504.123779 1232.288696,512.540771 
	C1232.762817,512.863892 1233.237061,513.187012 1233.711182,513.510132 
	C1234.678101,512.323792 1236.338379,511.214294 1236.479980,509.936493 
	C1236.880615,506.321991 1236.658936,502.638519 1236.682251,498.104828 
M831.459534,508.903198 
	C834.090332,510.247498 835.404785,508.939117 836.433044,506.613922 
	C837.948547,503.186981 839.631165,499.833984 841.242615,496.449493 
	C842.222107,501.066803 842.315308,505.471832 842.192627,509.870850 
	C842.094299,513.394714 843.706787,513.688477 846.477295,512.694885 
	C846.477295,503.977875 846.477295,495.533081 846.477295,487.088287 
	C846.121460,486.682434 845.765625,486.276550 845.409729,485.870697 
	C843.641907,487.189026 841.290405,488.150757 840.223206,489.897217 
	C837.711914,494.007202 835.813477,498.491669 833.301819,503.562012 
	C830.816833,498.437622 828.604126,494.338409 826.826172,490.058594 
	C825.461609,486.773865 823.402161,485.930267 820.113525,486.982056 
	C820.113525,495.614563 820.113525,504.184143 820.113525,512.714783 
	C823.355286,513.913452 824.240295,512.705688 824.148621,509.808502 
	C824.007019,505.329529 824.111328,500.842804 824.111328,496.359344 
	C824.506531,496.315765 824.901733,496.272217 825.296875,496.228668 
	C827.215942,500.262909 829.135010,504.297150 831.459534,508.903198 
M1014.243713,511.620880 
	C1015.877319,512.168396 1017.510864,512.715881 1019.803589,513.484253 
	C1019.803589,504.615112 1019.916809,496.968170 1019.674316,489.332520 
	C1019.640320,488.260956 1017.864136,487.244690 1016.894470,486.202850 
	C1016.372131,486.520416 1015.849731,486.837982 1015.327393,487.155548 
	C1015.327393,492.679230 1015.327393,498.202911 1015.327393,503.726624 
	C1010.840210,499.194366 1007.373047,494.415771 1004.306335,489.392700 
	C1002.570068,486.548950 1000.647766,485.988678 997.621277,487.234131 
	C997.621277,494.901001 997.713928,502.377838 997.581665,509.850708 
	C997.516968,513.507996 999.166992,513.673767 1002.262695,512.443420 
	C1002.262695,506.736572 1002.262695,501.023041 1002.262695,493.898804 
	C1006.630676,500.377869 1010.212646,505.691071 1014.243713,511.620880 
M777.391724,502.040894 
	C779.144897,509.903992 784.244751,514.159241 791.194214,513.557373 
	C797.857483,512.980408 802.820068,507.992401 803.462097,501.226898 
	C804.129150,494.196899 799.984192,488.213806 793.340698,486.617188 
	C784.461792,484.483337 777.579041,490.749939 777.391724,502.040894 
M972.331116,486.957733 
	C963.052856,485.119720 955.579834,489.839722 954.602295,498.155334 
	C953.688232,505.930969 959.254761,512.943176 966.812073,513.536194 
	C972.900146,514.013977 978.718323,510.247284 980.394348,504.743042 
	C982.670227,497.268860 980.117004,491.154510 972.331116,486.957733 
M1198.018433,505.381653 
	C1198.018433,507.838928 1198.018433,510.296204 1198.018433,513.255249 
	C1203.487305,513.255249 1208.446045,513.343201 1213.395142,513.164307 
	C1214.176514,513.136047 1214.914429,511.901306 1215.672485,511.224396 
	C1214.943115,510.533905 1214.299072,509.409302 1213.466309,509.245728 
	C1211.867798,508.931732 1210.162109,509.161896 1208.500977,509.167969 
	C1202.297119,509.190674 1201.892334,508.632965 1203.578247,501.824951 
	C1205.933960,501.824951 1208.417847,502.010681 1210.849243,501.733826 
	C1211.824341,501.622772 1212.683472,500.494507 1213.595337,499.829193 
	C1212.685181,499.157867 1211.826050,498.011749 1210.854980,497.907410 
	C1208.309937,497.634003 1205.716187,497.815186 1203.049316,497.815186 
	C1203.049316,495.204224 1203.049316,493.301392 1203.049316,490.834412 
	C1206.486938,490.834412 1209.619751,490.996368 1212.716797,490.734222 
	C1213.626831,490.657166 1214.435303,489.378235 1215.290405,488.650208 
	C1214.408936,487.935150 1213.552856,486.641602 1212.641846,486.601929 
	C1207.879639,486.394379 1203.103271,486.505035 1198.022461,486.505035 
	C1198.022461,492.877441 1198.022461,498.646912 1198.018433,505.381653 
M1293.660767,490.784515 
	C1290.575439,486.693573 1285.900391,485.134857 1281.471558,486.867035 
	C1278.063110,488.200165 1276.024658,490.680908 1276.158203,494.471924 
	C1276.350464,499.932861 1280.638550,500.833710 1284.718018,501.901001 
	C1284.878052,501.942932 1285.048950,501.944824 1285.207886,501.989746 
	C1287.764526,502.712738 1291.283325,503.347168 1289.741577,506.816620 
	C1289.078247,508.309204 1285.408325,508.729431 1283.023560,509.068512 
	C1282.012817,509.212219 1280.857910,507.713135 1279.653076,507.288147 
	C1278.311279,506.814850 1276.838013,506.714233 1274.288330,506.240906 
	C1278.739258,513.088379 1284.255615,515.250793 1289.719238,512.458618 
	C1291.932251,511.327667 1294.187012,508.247894 1294.411499,505.865509 
	C1294.609131,503.766449 1292.430664,500.886566 1290.513916,499.307861 
	C1288.730347,497.838989 1285.770874,497.895538 1283.595703,496.766785 
	C1282.369141,496.130371 1281.681030,494.456604 1280.750488,493.250153 
	C1282.006104,492.326447 1283.212158,490.746887 1284.530151,490.646973 
	C1286.136475,490.525208 1288.134888,491.276794 1289.429199,492.316284 
	C1291.541260,494.012482 1292.828369,494.020905 1293.660767,490.784515 
M1072.098755,498.409424 
	C1070.500122,497.941467 1068.713623,497.772980 1067.355835,496.921082 
	C1066.004639,496.073303 1065.084106,494.539215 1063.974731,493.306091 
	C1065.560425,492.347229 1067.053833,490.932312 1068.763550,490.586182 
	C1069.947266,490.346588 1071.400513,491.666138 1072.786011,492.133362 
	C1074.192749,492.607788 1075.663940,492.891266 1077.946533,493.471893 
	C1075.829956,486.953491 1071.720215,486.013123 1067.178345,486.462616 
	C1063.236572,486.852753 1060.203857,488.848602 1059.675049,493.217072 
	C1059.136108,497.668518 1061.656616,500.009491 1065.569458,501.229156 
	C1066.837646,501.624420 1068.382324,501.554901 1069.387085,502.274963 
	C1070.939331,503.387573 1072.135986,504.996429 1073.483398,506.394897 
	C1071.604492,507.412567 1069.796631,509.015381 1067.823120,509.255554 
	C1066.347412,509.435120 1064.709351,507.716431 1063.046875,507.106842 
	C1061.730347,506.624146 1060.266968,506.542084 1057.998657,506.120331 
	C1061.560791,512.520874 1065.650391,514.445923 1071.134277,513.256958 
	C1074.845703,512.452332 1077.695312,510.602905 1078.187134,506.528076 
	C1078.680176,502.442932 1076.659058,499.880554 1072.098755,498.409424 
M718.291443,509.344391 
	C712.277405,509.051849 710.884766,507.684875 710.823547,501.928772 
	C710.781067,497.931274 710.676880,493.929840 710.801453,489.936432 
	C710.926392,485.929932 708.981750,486.028961 706.174194,487.149811 
	C706.174194,493.018005 705.920044,498.687286 706.245483,504.323090 
	C706.572693,509.989502 711.273438,513.759827 717.165955,513.680542 
	C723.270935,513.598389 727.401611,509.900696 727.653259,503.968964 
	C727.850769,499.312744 727.629333,494.640076 727.750122,489.978790 
	C727.836914,486.631622 726.474426,485.823395 723.108276,487.216492 
	C723.108276,492.451477 723.484497,497.785614 722.926575,503.020203 
	C722.697266,505.171570 720.455322,507.108398 718.291443,509.344391 
M1142.695923,498.683075 
	C1140.322998,497.928528 1137.847412,497.387299 1135.625488,496.318756 
	C1134.683350,495.865723 1133.648438,494.208679 1133.793701,493.276031 
	C1133.945435,492.301422 1135.502808,490.792236 1136.379395,490.836304 
	C1138.377441,490.936798 1140.318115,491.914581 1142.315674,492.396912 
	C1143.460327,492.673309 1144.670654,492.677582 1145.851440,492.804321 
	C1145.582520,491.512695 1145.751221,489.773773 1144.968140,489.007843 
	C1141.801147,485.910492 1137.682251,485.056335 1133.972656,487.291534 
	C1131.776855,488.614594 1129.338745,491.621643 1129.322754,493.887665 
	C1129.307007,496.136353 1131.884277,498.753845 1133.912476,500.542938 
	C1135.260986,501.732391 1137.806519,501.451874 1139.510376,502.386810 
	C1140.923584,503.162170 1141.889771,504.751923 1143.054077,505.980804 
	C1141.676880,507.186401 1140.208618,509.486389 1138.940796,509.380737 
	C1135.841553,509.122528 1132.834961,507.752136 1128.997437,506.588837 
	C1128.993286,506.599762 1127.953369,508.011902 1128.305542,508.626251 
	C1130.412964,512.303467 1133.932861,513.652283 1138.023438,513.441528 
	C1141.800781,513.246765 1145.531128,512.518433 1146.918091,508.346252 
	C1148.217407,504.438354 1147.199585,501.110138 1142.695923,498.683075 
M882.848938,503.524567 
	C881.035217,498.705627 879.344727,493.833771 877.314270,489.107910 
	C876.852539,488.033264 875.295410,487.026123 874.090515,486.800964 
	C873.120667,486.619720 871.257935,487.395569 870.926697,488.209015 
	C867.651794,496.252869 864.613770,504.393250 861.508606,512.506287 
	C861.989685,512.888550 862.470703,513.270874 862.951782,513.653137 
	C864.307129,512.478394 866.393616,511.548920 866.884949,510.084320 
	C868.571045,505.058777 872.602844,507.372406 875.695923,506.788666 
	C878.561340,506.247894 879.668030,507.828827 880.762512,510.270447 
	C881.399719,511.691864 883.519226,512.448853 884.971741,513.504761 
	C885.303650,513.065613 885.635559,512.626526 885.967468,512.187378 
	C884.997009,509.551147 884.026611,506.914917 882.848938,503.524567 
M667.975708,509.191895 
	C667.687073,510.366669 667.398438,511.541443 667.096375,512.770691 
	C672.794800,514.334595 671.456604,508.610626 674.259033,506.847748 
	C675.078979,506.847748 676.234375,506.868927 677.388733,506.843842 
	C681.305420,506.758759 685.527039,505.840759 686.582825,511.638672 
	C686.720886,512.396729 689.265076,512.716614 691.819519,513.650818 
	C688.536133,504.752869 685.888062,497.258850 682.942444,489.883667 
	C682.404968,488.538025 680.531006,486.695007 679.492859,486.825317 
	C677.983826,487.014771 676.018738,488.502350 675.392578,489.936188 
	C672.741699,496.005829 670.514221,502.260345 667.975708,509.191895 
M1105.680176,509.953064 
	C1103.793091,500.587646 1112.245483,494.940857 1114.464844,486.505280 
	C1106.590698,486.596283 1108.002686,495.145935 1103.368408,497.679535 
	C1096.249878,486.417389 1096.249878,486.417389 1092.280396,487.221863 
	C1096.378784,495.400238 1103.516846,502.474792 1100.609497,513.037903 
	C1101.173828,513.262878 1101.738159,513.487854 1102.302490,513.712830 
	C1103.425415,512.733521 1104.548340,511.754211 1105.680176,509.953064 
M755.582886,512.407959 
	C755.582886,505.320740 755.582886,498.233521 755.582886,490.808868 
	C758.181458,490.808868 759.871704,491.029205 761.459167,490.720581 
	C762.316772,490.553864 762.998657,489.483307 763.759827,488.820557 
	C762.964478,488.033203 762.194153,486.595856 761.369568,486.564026 
	C756.046936,486.358612 750.709656,486.378265 745.384644,486.551270 
	C744.604858,486.576630 743.864319,487.811340 743.105652,488.486481 
	C743.925415,489.285858 744.629456,490.532867 745.591553,490.781433 
	C747.097656,491.170563 748.778137,490.884644 751.070862,490.884644 
	C751.070862,497.699066 751.170166,503.838440 751.029663,509.972290 
	C750.957642,513.116882 752.341797,513.771362 755.582886,512.407959 
M1174.778931,491.201965 
	C1176.253174,491.056976 1177.727783,490.785767 1179.201416,490.792053 
	C1182.783203,490.807281 1182.204468,488.902008 1181.641602,486.849609 
	C1174.933105,486.849609 1168.680542,486.849609 1162.427979,486.849609 
	C1162.143921,487.312042 1161.859863,487.774445 1161.575928,488.236877 
	C1162.733398,489.099670 1163.951660,490.763885 1165.037598,490.681671 
	C1168.999146,490.381805 1169.857300,492.140594 1169.713501,495.675079 
	C1169.484863,501.296112 1169.652344,506.933258 1169.652344,512.410278 
	C1172.874390,513.763367 1174.114624,512.962646 1174.088867,509.876312 
	C1174.038696,503.897125 1174.152710,497.916565 1174.778931,491.201965 
M904.869507,491.871429 
	C904.869507,498.822235 904.869507,505.773071 904.869507,512.591797 
	C908.210999,513.829895 909.338196,512.975647 909.273315,509.921448 
	C909.140137,503.657776 909.233337,497.389313 909.233337,490.756012 
	C911.716614,490.756012 913.550476,490.924561 915.324463,490.672363 
	C916.026428,490.572540 917.029236,489.586029 917.105042,488.914093 
	C917.183350,488.220306 916.318970,486.774811 915.836914,486.761658 
	C910.180725,486.607635 904.517395,486.602509 898.860962,486.750763 
	C898.288025,486.765808 897.316833,488.035370 897.315186,488.724640 
	C897.313599,489.399445 898.219299,490.520477 898.895203,490.666473 
	C900.658691,491.047424 902.514404,491.001831 904.869507,491.871429 
M933.511292,509.323151 
	C934.342224,510.574097 935.173157,511.825073 936.004150,513.076050 
	C936.582031,511.916901 937.623718,510.771912 937.659546,509.596191 
	C937.841309,503.636658 937.931885,497.661621 937.666992,491.709259 
	C937.591003,490.002167 936.223572,488.352478 935.448364,486.676514 
	C934.789734,488.272614 933.631226,489.847626 933.562927,491.468628 
	C933.325806,497.092804 933.467468,502.732910 933.511292,509.323151 
z"/>
<path fill="#FBFBFB" opacity="1.000000" stroke="none" 
	d="
M478.247498,319.509277 
	C467.088379,318.676971 456.326538,317.651337 445.545959,317.384552 
	C431.895691,317.046753 418.230133,317.340576 404.571167,317.332886 
	C397.961823,317.329163 395.889374,315.277618 395.873138,308.761505 
	C395.852783,300.599609 395.798553,292.436707 395.899933,284.276031 
	C395.966705,278.904053 398.129883,276.781982 403.572388,276.770325 
	C426.059875,276.722107 448.556458,276.343323 471.033203,276.836884 
	C517.879883,277.865631 558.964478,312.491882 570.002869,359.685577 
	C570.343567,361.142120 570.739746,362.592651 570.963684,364.068176 
	C571.734863,369.148499 570.340881,370.909729 565.219055,370.944794 
	C555.725098,371.009796 546.229980,370.942413 536.735474,370.897552 
	C529.569580,370.863708 528.374756,369.984589 525.831177,363.111267 
	C517.497498,340.591827 501.791016,326.077881 478.247498,319.509277 
z"/>
<path fill="#F7F7F7" opacity="1.000000" stroke="none" 
	d="
M749.259338,320.872620 
	C773.709656,331.748230 785.962036,350.853973 787.987976,376.619629 
	C789.807861,399.764557 783.451538,420.174469 765.234863,435.677734 
	C753.654663,445.533051 739.855347,450.264038 724.811829,450.605255 
	C706.837585,451.012970 688.846863,450.698486 670.863342,450.666901 
	C669.739136,450.664948 668.615295,450.402679 667.278992,450.234833 
	C667.278992,405.447937 667.278992,360.877533 667.278992,316.102631 
	C668.098999,315.934174 668.878784,315.634460 669.658630,315.634247 
	C688.141846,315.629639 706.644775,315.166016 725.099060,315.907654 
	C733.084961,316.228577 740.970398,319.048401 749.259338,320.872620 
M688.429565,335.635406 
	C688.172729,337.061401 687.692871,338.487244 687.692017,339.913391 
	C687.675049,368.718964 687.713135,397.524597 687.739929,426.330200 
	C687.741394,427.903412 687.740112,429.476593 687.740112,431.213562 
	C700.215271,431.213562 711.871155,431.464142 723.510742,431.136169 
	C733.232605,430.862213 742.112610,427.575195 749.773132,421.496399 
	C765.899353,408.699829 771.817688,385.252960 763.831604,364.313538 
	C758.179871,349.494629 747.824280,338.852051 731.747192,336.868439 
	C717.791687,335.146606 703.542419,335.805756 688.429565,335.635406 
z"/>
<path fill="#FBFBFB" opacity="1.000000" stroke="none" 
	d="
M396.690247,488.038727 
	C399.503906,486.618713 402.085114,484.633514 404.696533,484.592926 
	C423.512787,484.300476 442.335205,484.391602 461.155640,484.381073 
	C489.586212,484.365173 515.153564,466.851196 525.256287,440.175049 
	C527.240662,434.935333 530.251892,432.463257 536.024292,432.667297 
	C545.173645,432.990692 554.342896,432.742462 563.503601,432.763031 
	C570.554260,432.778900 571.544312,434.001953 570.039673,440.711182 
	C559.262085,488.769958 514.390625,524.599915 465.079407,524.536316 
	C444.759735,524.510132 424.440033,524.519470 404.120331,524.493408 
	C397.654572,524.485107 395.695099,522.641296 395.782715,516.245483 
	C395.909973,506.953522 396.232544,497.664215 396.690247,488.038727 
z"/>
<path fill="#F8F8F8" opacity="1.000000" stroke="none" 
	d="
M914.494019,440.457397 
	C892.129761,424.650574 883.335876,402.817444 885.522644,376.552032 
	C887.737183,349.952881 901.399109,330.486755 925.713196,319.515564 
	C951.535095,307.864044 987.212036,312.872925 1005.247864,336.770264 
	C1009.625427,342.570465 1012.560547,349.459259 1016.859253,357.090790 
	C1008.808838,357.553741 1002.716736,358.052368 996.619385,358.126953 
	C995.430176,358.141479 993.690186,356.774567 993.100159,355.596222 
	C984.355835,338.132141 963.248169,331.076935 945.295898,334.537689 
	C924.635864,338.520386 909.651855,353.889099 906.985474,373.468872 
	C903.728210,397.387360 912.133118,416.671448 931.327820,427.019775 
	C952.645630,438.512665 980.592102,432.775574 993.000183,411.077057 
	C993.753174,409.760315 995.581665,408.209839 996.905090,408.214081 
	C1002.861023,408.233154 1008.815308,408.774353 1015.630188,409.178284 
	C1010.437134,425.812378 1000.706787,438.083069 985.642212,445.139404 
	C961.453003,456.469635 937.580017,455.214661 914.494019,440.457397 
z"/>
<path fill="#F6F6F6" opacity="1.000000" stroke="none" 
	d="
M1205.405640,354.634216 
	C1211.391235,358.387299 1217.018921,361.997131 1222.879639,365.756470 
	C1222.879639,349.283112 1222.879639,332.563354 1222.879639,315.499329 
	C1229.579712,315.499329 1235.818848,315.499329 1242.410400,315.499329 
	C1242.410400,360.337616 1242.410400,405.196320 1242.410400,450.381226 
	C1236.029175,450.381226 1229.806030,450.381226 1223.149414,450.381226 
	C1223.149414,446.255157 1223.149414,442.351135 1223.149414,437.529968 
	C1221.877319,438.584625 1221.259033,439.001282 1220.756226,439.528290 
	C1208.563599,452.309357 1193.555786,455.351227 1177.227661,450.654083 
	C1160.700684,445.899719 1150.480835,434.004944 1146.240112,417.630127 
	C1141.982178,401.188599 1143.691528,385.198425 1153.527954,370.785706 
	C1165.126953,353.790558 1185.680054,347.370056 1205.405640,354.634216 
M1209.192139,374.125610 
	C1201.035889,369.662750 1192.544800,368.585876 1183.673828,371.677399 
	C1170.322998,376.330139 1162.721313,390.311401 1164.471802,406.928070 
	C1165.766479,419.216003 1174.732056,430.188446 1185.926880,433.185333 
	C1197.723511,436.343292 1210.398926,431.727417 1217.877319,421.919952 
	C1225.984985,411.287018 1226.649170,385.577789 1209.192139,374.125610 
z"/>
<path fill="#F7F7F8" opacity="1.000000" stroke="none" 
	d="
M1328.670654,356.291229 
	C1348.734985,367.466919 1355.170288,384.981842 1353.730225,407.087830 
	C1328.984619,407.087830 1304.447998,407.087830 1279.930542,407.087830 
	C1279.712524,419.131805 1287.128052,429.287445 1298.495117,433.148285 
	C1310.507446,437.228302 1323.819946,433.642914 1330.358154,424.283722 
	C1331.997681,421.936890 1333.351929,420.912323 1336.361084,421.731689 
	C1341.114990,423.026093 1346.028687,423.733246 1351.296143,424.772034 
	C1345.302979,440.245605 1333.901611,448.059906 1318.919067,451.395416 
	C1297.604004,456.140808 1277.287720,447.713501 1266.274902,429.698395 
	C1250.841064,404.451233 1260.833252,368.195892 1286.716919,356.286896 
	C1300.458862,349.964172 1314.444214,350.107971 1328.670654,356.291229 
M1333.372925,390.804718 
	C1330.837158,376.478149 1320.341553,368.372009 1305.253174,369.137421 
	C1293.447144,369.736267 1281.574341,378.177856 1280.377197,392.185364 
	C1287.197510,392.185364 1293.989502,392.243927 1300.780273,392.171936 
	C1311.556274,392.057709 1322.331299,391.856262 1333.372925,390.804718 
z"/>
<path fill="#F7F7F8" opacity="1.000000" stroke="none" 
	d="
M1046.062744,440.942566 
	C1020.883362,420.015808 1024.066650,379.514709 1048.311523,361.674988 
	C1073.855835,342.878967 1114.514526,350.388397 1126.537842,384.211609 
	C1134.613525,406.929077 1126.829346,430.991638 1108.409790,443.938110 
	C1092.092773,455.406799 1065.286865,456.511200 1046.062744,440.942566 
M1068.508667,371.781494 
	C1054.701172,377.130463 1047.516968,390.002899 1048.944092,406.836914 
	C1050.342529,423.335175 1065.229614,435.922943 1081.662598,434.224762 
	C1093.837158,432.966614 1102.568848,426.498230 1106.830200,415.075653 
	C1111.575562,402.355438 1110.336426,389.994812 1101.154785,379.507111 
	C1092.555298,369.684296 1081.434814,368.009033 1068.508667,371.781494 
z"/>
<path fill="#FAF9FA" opacity="1.000000" stroke="none" 
	d="
M530.798645,386.506683 
	C531.409607,382.272644 533.828613,380.725250 537.457764,380.731567 
	C547.448425,380.748962 557.439026,380.800690 567.429688,380.805573 
	C571.528687,380.807556 573.766357,383.032440 573.845093,386.887817 
	C574.048950,396.873993 574.126099,406.870361 573.889954,416.854034 
	C573.799438,420.681061 571.118530,422.840149 567.244873,422.870880 
	C557.254761,422.950165 547.263306,422.935486 537.272949,422.868866 
	C532.776184,422.838867 530.692444,420.452057 530.735291,415.924805 
	C530.826782,406.267761 530.782349,396.609467 530.798645,386.506683 
z"/>
<path fill="#FBFBFB" opacity="1.000000" stroke="none" 
	d="
M382.300720,307.542175 
	C382.231720,315.584534 380.721985,317.141296 373.345795,317.171204 
	C365.526672,317.202911 357.707458,317.242676 349.888397,317.225250 
	C343.886414,317.211884 341.869568,315.172363 341.842255,309.113678 
	C341.804810,300.795258 341.781372,292.476379 341.826721,284.158142 
	C341.854645,279.034515 343.878052,276.902954 349.076874,276.835968 
	C357.893005,276.722290 366.711975,276.773773 375.529297,276.831726 
	C379.954315,276.860809 382.284180,279.109406 382.279480,283.634888 
	C382.271332,291.453918 382.289795,299.272980 382.300720,307.542175 
z"/>
<path fill="#FBFBFB" opacity="1.000000" stroke="none" 
	d="
M382.291168,498.164368 
	C382.266388,504.805481 382.335083,510.971161 382.188354,517.131714 
	C382.063049,522.393188 380.026703,524.389771 374.884460,524.435608 
	C366.555847,524.509827 358.225769,524.535095 349.897247,524.466187 
	C343.571777,524.413879 341.815002,522.627197 341.802917,516.493591 
	C341.787140,508.497345 341.785248,500.500824 341.842804,492.504883 
	C341.881836,487.087677 343.943054,484.930420 349.348969,484.863159 
	C357.177307,484.765747 365.007812,484.831879 372.837372,484.841919 
	C380.486145,484.851715 382.247131,486.600708 382.286743,494.188293 
	C382.292847,495.354401 382.289948,496.520569 382.291168,498.164368 
z"/>
<path fill="#0D7DF5" opacity="1.000000" stroke="none" 
	d="
M335.003357,422.817871 
	C330.676788,422.799744 326.839478,422.926361 323.019135,422.727203 
	C318.943420,422.514648 316.577026,420.322784 316.546539,416.071564 
	C316.490387,408.246429 316.476868,400.420990 316.450165,392.595673 
	C316.437012,388.749176 318.387878,386.608368 322.200592,386.562958 
	C330.857941,386.459717 339.517242,386.532227 348.175690,386.504456 
	C352.086487,386.491913 354.178894,388.636414 354.259064,392.297028 
	C354.433960,400.283508 354.477325,408.283417 354.200897,416.264923 
	C354.053314,420.526550 351.479187,422.881134 346.989594,422.816711 
	C343.160553,422.761749 339.329987,422.814270 335.003357,422.817871 
z"/>
<path fill="#F3F3F3" opacity="1.000000" stroke="none" 
	d="
M808.125488,392.201294 
	C808.127258,389.936829 808.127258,388.140442 808.127258,385.865784 
	C827.294800,385.865784 845.973267,385.865784 864.998169,385.865784 
	C864.998169,392.150208 864.998169,398.227448 864.998169,404.601685 
	C846.171021,404.601685 827.477356,404.601685 808.123657,404.601685 
	C808.123657,400.525818 808.123657,396.597595 808.125488,392.201294 
z"/>
<path fill="#FAF9FA" opacity="1.000000" stroke="none" 
	d="
M395.219421,465.964355 
	C393.143829,466.946472 391.346832,468.059448 389.519684,468.111298 
	C382.193420,468.319397 374.857513,468.156433 367.525848,468.216370 
	C363.610443,468.248383 361.650299,466.451843 361.638580,462.516113 
	C361.617706,455.517517 361.562836,448.518982 361.539642,441.520386 
	C361.525574,437.283875 363.509766,434.994415 367.895599,435.018341 
	C375.227631,435.058350 382.587341,434.719116 389.874939,435.299316 
	C392.035339,435.471313 395.679688,438.110199 395.760406,439.759766 
	C396.180725,448.350647 395.670502,456.987000 395.219421,465.964355 
z"/>
<path fill="#F8F8F8" opacity="1.000000" stroke="none" 
	d="
M369.380859,340.085205 
	C376.337219,340.097534 382.834869,340.114410 389.332520,340.114502 
	C393.816620,340.114563 396.152344,342.291565 396.153809,346.823273 
	C396.155975,353.487610 396.203644,360.152954 396.100861,366.815857 
	C396.039185,370.816650 393.843414,372.921906 389.823761,372.935425 
	C382.493073,372.960052 375.162079,372.894836 367.831451,372.923920 
	C363.974976,372.939240 361.797241,371.024261 361.698792,367.260712 
	C361.515869,360.267639 361.449402,353.264252 361.616425,346.271912 
	C361.724548,341.743500 364.524078,339.832092 369.380859,340.085205 
z"/>
<path fill="#F8F8F8" opacity="1.000000" stroke="none" 
	d="
M312.390167,447.137726 
	C312.391022,452.433990 312.403717,457.250793 312.381165,462.067413 
	C312.362213,466.119385 310.330383,468.194183 306.245361,468.202515 
	C299.103058,468.217072 291.960724,468.233551 284.818420,468.253815 
	C281.167725,468.264160 279.213562,466.379456 279.172516,462.803741 
	C279.088623,455.496368 279.137146,448.186920 279.185394,440.878693 
	C279.211060,436.988770 281.384186,435.148560 285.141693,435.114929 
	C291.453186,435.058441 297.765442,435.048706 304.077179,435.072052 
	C310.937836,435.097412 312.215912,436.377808 312.335114,443.170380 
	C312.355530,444.332916 312.369690,445.495575 312.390167,447.137726 
z"/>
<path fill="#F8F8F8" opacity="1.000000" stroke="none" 
	d="
M285.482727,340.118225 
	C292.414703,340.135162 298.898285,340.115448 305.380951,340.183472 
	C310.359253,340.235687 312.268768,342.085419 312.344055,347.112610 
	C312.441101,353.594238 312.365234,360.078522 312.363525,366.561646 
	C312.362366,370.882019 310.154755,372.931824 305.882111,372.921387 
	C298.900177,372.904327 291.918152,372.906036 284.936218,372.921722 
	C280.825195,372.930939 278.822845,370.875946 278.825317,366.799774 
	C278.829346,360.150238 278.899506,353.499847 278.814484,346.851471 
	C278.759338,342.539307 280.825623,340.390839 285.482727,340.118225 
z"/>
<path fill="#91969B" opacity="1.000000" stroke="none" 
	d="
M1236.682373,498.543518 
	C1236.658936,502.638519 1236.880615,506.321991 1236.479980,509.936493 
	C1236.338379,511.214294 1234.678101,512.323792 1233.711182,513.510132 
	C1233.237061,513.187012 1232.762817,512.863892 1232.288696,512.540771 
	C1232.288696,504.123779 1232.288696,495.706818 1232.288696,487.123993 
	C1235.617554,485.806458 1237.727173,486.443085 1239.182373,490.066620 
	C1240.876465,494.285767 1243.193481,498.254822 1245.625488,503.100311 
	C1248.123779,498.188232 1250.374634,494.160645 1252.238281,489.961212 
	C1253.522095,487.068176 1255.160156,485.669525 1258.660400,486.974579 
	C1258.660400,495.446228 1258.660400,504.014923 1258.660400,512.770020 
	C1255.862183,513.950989 1254.488403,513.327698 1254.621216,509.896912 
	C1254.785156,505.658478 1254.660400,501.408844 1254.660400,497.164062 
	C1254.221680,497.049896 1253.783081,496.935730 1253.344360,496.821564 
	C1251.710449,500.117432 1250.194336,503.480347 1248.378418,506.672729 
	C1247.745605,507.785126 1246.472412,508.918335 1245.298096,509.183289 
	C1244.663452,509.326447 1243.363281,507.797943 1242.807617,506.780884 
	C1240.935791,503.354950 1239.263062,499.820160 1237.046265,495.392578 
	C1236.832520,496.984528 1236.757446,497.544678 1236.682373,498.543518 
z"/>
<path fill="#91969B" opacity="1.000000" stroke="none" 
	d="
M831.256836,508.617310 
	C829.135010,504.297150 827.215942,500.262909 825.296875,496.228668 
	C824.901733,496.272217 824.506531,496.315765 824.111328,496.359344 
	C824.111328,500.842804 824.007019,505.329529 824.148621,509.808502 
	C824.240295,512.705688 823.355286,513.913452 820.113525,512.714783 
	C820.113525,504.184143 820.113525,495.614563 820.113525,486.982056 
	C823.402161,485.930267 825.461609,486.773865 826.826172,490.058594 
	C828.604126,494.338409 830.816833,498.437622 833.301819,503.562012 
	C835.813477,498.491669 837.711914,494.007202 840.223206,489.897217 
	C841.290405,488.150757 843.641907,487.189026 845.409729,485.870697 
	C845.765625,486.276550 846.121460,486.682434 846.477295,487.088287 
	C846.477295,495.533081 846.477295,503.977875 846.477295,512.694885 
	C843.706787,513.688477 842.094299,513.394714 842.192627,509.870850 
	C842.315308,505.471832 842.222107,501.066803 841.242615,496.449493 
	C839.631165,499.833984 837.948547,503.186981 836.433044,506.613922 
	C835.404785,508.939117 834.090332,510.247498 831.256836,508.617310 
z"/>
<path fill="#91969B" opacity="1.000000" stroke="none" 
	d="
M1014.019165,511.312561 
	C1010.212646,505.691071 1006.630676,500.377869 1002.262695,493.898804 
	C1002.262695,501.023041 1002.262695,506.736572 1002.262695,512.443420 
	C999.166992,513.673767 997.516968,513.507996 997.581665,509.850708 
	C997.713928,502.377838 997.621277,494.901001 997.621277,487.234131 
	C1000.647766,485.988678 1002.570068,486.548950 1004.306335,489.392700 
	C1007.373047,494.415771 1010.840210,499.194366 1015.327393,503.726624 
	C1015.327393,498.202911 1015.327393,492.679230 1015.327393,487.155548 
	C1015.849731,486.837982 1016.372131,486.520416 1016.894470,486.202850 
	C1017.864136,487.244690 1019.640320,488.260956 1019.674316,489.332520 
	C1019.916809,496.968170 1019.803589,504.615112 1019.803589,513.484253 
	C1017.510864,512.715881 1015.877319,512.168396 1014.019165,511.312561 
z"/>
<path fill="#8D9298" opacity="1.000000" stroke="none" 
	d="
M777.346191,501.631195 
	C777.579041,490.749939 784.461792,484.483337 793.340698,486.617188 
	C799.984192,488.213806 804.129150,494.196899 803.462097,501.226898 
	C802.820068,507.992401 797.857483,512.980408 791.194214,513.557373 
	C784.244751,514.159241 779.144897,509.903992 777.346191,501.631195 
M783.070312,494.878296 
	C780.676270,502.002167 782.504639,507.405823 787.846313,508.993591 
	C791.999573,510.228088 796.250916,508.486359 797.997925,504.834412 
	C800.117920,500.402954 798.946777,494.751251 795.375671,492.179718 
	C791.508606,489.395081 787.793945,490.017181 783.070312,494.878296 
z"/>
<path fill="#8D9298" opacity="1.000000" stroke="none" 
	d="
M972.698853,487.076233 
	C980.117004,491.154510 982.670227,497.268860 980.394348,504.743042 
	C978.718323,510.247284 972.900146,514.013977 966.812073,513.536194 
	C959.254761,512.943176 953.688232,505.930969 954.602295,498.155334 
	C955.579834,489.839722 963.052856,485.119720 972.698853,487.076233 
M972.378845,508.335449 
	C976.611938,505.741638 977.512207,501.555176 976.065552,497.488098 
	C975.148010,494.908478 972.615173,492.231293 970.119446,491.050110 
	C966.767334,489.463593 963.126831,490.714813 960.992981,494.088104 
	C958.569763,497.918823 958.497681,502.075043 961.022522,505.849762 
	C963.611938,509.720642 967.470093,510.127014 972.378845,508.335449 
z"/>
<path fill="#8D9298" opacity="1.000000" stroke="none" 
	d="
M1198.020508,504.899017 
	C1198.022461,498.646912 1198.022461,492.877441 1198.022461,486.505035 
	C1203.103271,486.505035 1207.879639,486.394379 1212.641846,486.601929 
	C1213.552856,486.641602 1214.408936,487.935150 1215.290405,488.650208 
	C1214.435303,489.378235 1213.626831,490.657166 1212.716797,490.734222 
	C1209.619751,490.996368 1206.486938,490.834412 1203.049316,490.834412 
	C1203.049316,493.301392 1203.049316,495.204224 1203.049316,497.815186 
	C1205.716187,497.815186 1208.309937,497.634003 1210.854980,497.907410 
	C1211.826050,498.011749 1212.685181,499.157867 1213.595337,499.829224 
	C1212.683472,500.494507 1211.824341,501.622772 1210.849243,501.733826 
	C1208.417847,502.010681 1205.933960,501.824951 1203.578247,501.824951 
	C1201.892334,508.632965 1202.297119,509.190674 1208.500977,509.167969 
	C1210.162109,509.161896 1211.867798,508.931732 1213.466309,509.245728 
	C1214.299072,509.409302 1214.943115,510.533905 1215.672485,511.224365 
	C1214.914429,511.901306 1214.176514,513.136047 1213.395142,513.164307 
	C1208.446045,513.343201 1203.487305,513.255249 1198.018433,513.255249 
	C1198.018433,510.296204 1198.018433,507.838928 1198.020508,504.899017 
z"/>
<path fill="#8D9298" opacity="1.000000" stroke="none" 
	d="
M1293.773071,491.121765 
	C1292.828369,494.020905 1291.541260,494.012482 1289.429199,492.316284 
	C1288.134888,491.276794 1286.136475,490.525208 1284.530151,490.646973 
	C1283.212158,490.746887 1282.006104,492.326447 1280.750488,493.250153 
	C1281.681030,494.456604 1282.369141,496.130371 1283.595703,496.766785 
	C1285.770874,497.895538 1288.730347,497.838989 1290.513916,499.307861 
	C1292.430664,500.886566 1294.609131,503.766449 1294.411499,505.865509 
	C1294.187012,508.247894 1291.932251,511.327667 1289.719238,512.458618 
	C1284.255615,515.250793 1278.739258,513.088379 1274.288330,506.240906 
	C1276.838013,506.714233 1278.311279,506.814850 1279.653076,507.288147 
	C1280.857910,507.713135 1282.012817,509.212219 1283.023560,509.068512 
	C1285.408325,508.729431 1289.078247,508.309204 1289.741577,506.816620 
	C1291.283325,503.347168 1287.764526,502.712738 1285.207886,501.989746 
	C1285.048950,501.944824 1284.878052,501.942932 1284.718018,501.901001 
	C1280.638550,500.833710 1276.350464,499.932861 1276.158203,494.471924 
	C1276.024658,490.680908 1278.063110,488.200165 1281.471558,486.867035 
	C1285.900391,485.134857 1290.575439,486.693573 1293.773071,491.121765 
z"/>
<path fill="#8D9298" opacity="1.000000" stroke="none" 
	d="
M1072.450684,498.542755 
	C1076.659058,499.880554 1078.680176,502.442932 1078.187134,506.528076 
	C1077.695312,510.602905 1074.845703,512.452332 1071.134277,513.256958 
	C1065.650391,514.445923 1061.560791,512.520874 1057.998657,506.120331 
	C1060.266968,506.542084 1061.730347,506.624146 1063.046875,507.106842 
	C1064.709351,507.716431 1066.347412,509.435120 1067.823120,509.255554 
	C1069.796631,509.015381 1071.604492,507.412567 1073.483398,506.394897 
	C1072.135986,504.996429 1070.939331,503.387573 1069.387085,502.274963 
	C1068.382324,501.554901 1066.837646,501.624420 1065.569458,501.229156 
	C1061.656616,500.009491 1059.136108,497.668518 1059.675049,493.217072 
	C1060.203857,488.848602 1063.236572,486.852753 1067.178345,486.462616 
	C1071.720215,486.013123 1075.829956,486.953491 1077.946533,493.471893 
	C1075.663940,492.891266 1074.192749,492.607788 1072.786011,492.133362 
	C1071.400513,491.666138 1069.947266,490.346588 1068.763550,490.586182 
	C1067.053833,490.932312 1065.560425,492.347229 1063.974731,493.306091 
	C1065.084106,494.539215 1066.004639,496.073303 1067.355835,496.921082 
	C1068.713623,497.772980 1070.500122,497.941467 1072.450684,498.542755 
z"/>
<path fill="#878D92" opacity="1.000000" stroke="none" 
	d="
M718.710144,509.243591 
	C720.455322,507.108398 722.697266,505.171570 722.926575,503.020203 
	C723.484497,497.785614 723.108276,492.451477 723.108276,487.216492 
	C726.474426,485.823395 727.836914,486.631622 727.750122,489.978790 
	C727.629333,494.640076 727.850769,499.312744 727.653259,503.968964 
	C727.401611,509.900696 723.270935,513.598389 717.165955,513.680542 
	C711.273438,513.759827 706.572693,509.989502 706.245483,504.323090 
	C705.920044,498.687286 706.174194,493.018005 706.174194,487.149811 
	C708.981750,486.028961 710.926392,485.929932 710.801453,489.936432 
	C710.676880,493.929840 710.781067,497.931274 710.823547,501.928772 
	C710.884766,507.684875 712.277405,509.051849 718.710144,509.243591 
z"/>
<path fill="#91969B" opacity="1.000000" stroke="none" 
	d="
M1143.040283,498.834534 
	C1147.199585,501.110138 1148.217407,504.438354 1146.918091,508.346252 
	C1145.531128,512.518433 1141.800781,513.246765 1138.023438,513.441528 
	C1133.932861,513.652283 1130.412964,512.303467 1128.305542,508.626251 
	C1127.953369,508.011902 1128.993286,506.599762 1128.997437,506.588837 
	C1132.834961,507.752136 1135.841553,509.122528 1138.940796,509.380737 
	C1140.208618,509.486389 1141.676880,507.186401 1143.054077,505.980835 
	C1141.889771,504.751923 1140.923584,503.162170 1139.510376,502.386810 
	C1137.806519,501.451874 1135.260986,501.732391 1133.912476,500.542938 
	C1131.884277,498.753845 1129.307007,496.136353 1129.322754,493.887665 
	C1129.338745,491.621643 1131.776855,488.614594 1133.972656,487.291534 
	C1137.682251,485.056335 1141.801147,485.910492 1144.968140,489.007843 
	C1145.751221,489.773773 1145.582520,491.512695 1145.851440,492.804321 
	C1144.670654,492.677582 1143.460327,492.673309 1142.315674,492.396912 
	C1140.318115,491.914581 1138.377441,490.936798 1136.379395,490.836304 
	C1135.502808,490.792236 1133.945435,492.301422 1133.793701,493.276031 
	C1133.648438,494.208679 1134.683350,495.865723 1135.625488,496.318756 
	C1137.847412,497.387299 1140.322998,497.928528 1143.040283,498.834534 
z"/>
<path fill="#91969B" opacity="1.000000" stroke="none" 
	d="
M882.952576,503.901611 
	C884.026611,506.914917 884.997009,509.551147 885.967468,512.187378 
	C885.635559,512.626526 885.303650,513.065613 884.971741,513.504761 
	C883.519226,512.448853 881.399719,511.691864 880.762512,510.270447 
	C879.668030,507.828827 878.561340,506.247894 875.695923,506.788666 
	C872.602844,507.372406 868.571045,505.058777 866.884949,510.084320 
	C866.393616,511.548920 864.307129,512.478394 862.951782,513.653137 
	C862.470703,513.270874 861.989685,512.888550 861.508606,512.506287 
	C864.613770,504.393250 867.651794,496.252869 870.926697,488.209015 
	C871.257935,487.395569 873.120667,486.619720 874.090515,486.800964 
	C875.295410,487.026123 876.852539,488.033264 877.314270,489.107910 
	C879.344727,493.833771 881.035217,498.705627 882.952576,503.901611 
M877.318237,502.501770 
	C876.327881,499.240997 875.337524,495.980255 874.347229,492.719513 
	C873.943848,492.788544 873.540527,492.857574 873.137207,492.926605 
	C872.087036,495.995850 871.036804,499.065063 869.752625,502.818268 
	C872.459351,502.818268 874.539978,502.818268 877.318237,502.501770 
z"/>
<path fill="#91969B" opacity="1.000000" stroke="none" 
	d="
M668.053833,508.819580 
	C670.514221,502.260345 672.741699,496.005829 675.392578,489.936188 
	C676.018738,488.502350 677.983826,487.014771 679.492859,486.825317 
	C680.531006,486.695007 682.404968,488.538025 682.942444,489.883667 
	C685.888062,497.258850 688.536133,504.752869 691.819519,513.650818 
	C689.265076,512.716614 686.720886,512.396729 686.582825,511.638672 
	C685.527039,505.840759 681.305420,506.758759 677.388733,506.843842 
	C676.234375,506.868927 675.078979,506.847748 674.259033,506.847748 
	C671.456604,508.610626 672.794800,514.334595 667.096375,512.770691 
	C667.398438,511.541443 667.687073,510.366669 668.053833,508.819580 
M682.121094,499.386047 
	C681.233704,497.015533 680.346313,494.644989 679.458984,492.274475 
	C679.107910,492.330414 678.756836,492.386353 678.405762,492.442291 
	C677.308777,495.766266 676.211792,499.090271 674.954285,502.900757 
	C676.926147,502.900757 678.231934,502.906586 679.537537,502.897797 
	C680.033936,502.894440 680.799194,503.049622 680.976929,502.800568 
	C681.555237,501.990692 681.918640,501.027283 682.121094,499.386047 
z"/>
<path fill="#8D9298" opacity="1.000000" stroke="none" 
	d="
M1105.675781,510.363983 
	C1104.548340,511.754211 1103.425415,512.733521 1102.302490,513.712830 
	C1101.738159,513.487854 1101.173828,513.262878 1100.609497,513.037903 
	C1103.516846,502.474792 1096.378784,495.400238 1092.280396,487.221863 
	C1096.249878,486.417389 1096.249878,486.417389 1103.368408,497.679535 
	C1108.002686,495.145935 1106.590698,486.596283 1114.464844,486.505280 
	C1112.245483,494.940857 1103.793091,500.587646 1105.675781,510.363983 
z"/>
<path fill="#878D92" opacity="1.000000" stroke="none" 
	d="
M755.303345,512.692627 
	C752.341797,513.771362 750.957642,513.116882 751.029663,509.972290 
	C751.170166,503.838440 751.070862,497.699066 751.070862,490.884644 
	C748.778137,490.884644 747.097656,491.170563 745.591553,490.781433 
	C744.629456,490.532867 743.925415,489.285858 743.105652,488.486481 
	C743.864319,487.811340 744.604858,486.576630 745.384644,486.551270 
	C750.709656,486.378265 756.046936,486.358612 761.369568,486.564026 
	C762.194153,486.595856 762.964478,488.033203 763.759827,488.820557 
	C762.998657,489.483307 762.316772,490.553864 761.459167,490.720581 
	C759.871704,491.029205 758.181458,490.808868 755.582886,490.808868 
	C755.582886,498.233521 755.582886,505.320740 755.303345,512.692627 
z"/>
<path fill="#8D9298" opacity="1.000000" stroke="none" 
	d="
M1174.488770,491.569275 
	C1174.152710,497.916565 1174.038696,503.897125 1174.088867,509.876312 
	C1174.114624,512.962646 1172.874390,513.763367 1169.652344,512.410278 
	C1169.652344,506.933258 1169.484863,501.296112 1169.713501,495.675079 
	C1169.857300,492.140594 1168.999146,490.381805 1165.037598,490.681671 
	C1163.951660,490.763885 1162.733398,489.099670 1161.575928,488.236877 
	C1161.859863,487.774445 1162.143921,487.312042 1162.427979,486.849609 
	C1168.680542,486.849609 1174.933105,486.849609 1181.641602,486.849609 
	C1182.204468,488.902008 1182.783203,490.807281 1179.201416,490.792053 
	C1177.727783,490.785767 1176.253174,491.056976 1174.488770,491.569275 
z"/>
<path fill="#91969B" opacity="1.000000" stroke="none" 
	d="
M904.601440,491.498901 
	C902.514404,491.001831 900.658691,491.047424 898.895203,490.666473 
	C898.219299,490.520477 897.313599,489.399445 897.315186,488.724640 
	C897.316833,488.035370 898.288025,486.765808 898.860962,486.750763 
	C904.517395,486.602509 910.180725,486.607635 915.836914,486.761658 
	C916.318970,486.774811 917.183350,488.220306 917.105042,488.914093 
	C917.029236,489.586029 916.026428,490.572540 915.324463,490.672363 
	C913.550476,490.924561 911.716614,490.756012 909.233337,490.756012 
	C909.233337,497.389313 909.140137,503.657776 909.273315,509.921448 
	C909.338196,512.975647 908.210999,513.829895 904.869507,512.591797 
	C904.869507,505.773071 904.869507,498.822235 904.601440,491.498901 
z"/>
<path fill="#91969B" opacity="1.000000" stroke="none" 
	d="
M933.488159,508.845062 
	C933.467468,502.732910 933.325806,497.092804 933.562927,491.468628 
	C933.631226,489.847626 934.789734,488.272614 935.448364,486.676514 
	C936.223572,488.352478 937.591003,490.002167 937.666992,491.709259 
	C937.931885,497.661621 937.841309,503.636658 937.659546,509.596191 
	C937.623718,510.771912 936.582031,511.916901 936.004150,513.076050 
	C935.173157,511.825073 934.342224,510.574097 933.488159,508.845062 
z"/>
<path fill="#030303" opacity="1.000000" stroke="none" 
	d="
M688.926270,335.524017 
	C703.542419,335.805756 717.791687,335.146606 731.747192,336.868439 
	C747.824280,338.852051 758.179871,349.494629 763.831604,364.313538 
	C771.817688,385.252960 765.899353,408.699829 749.773132,421.496399 
	C742.112610,427.575195 733.232605,430.862213 723.510742,431.136169 
	C711.871155,431.464142 700.215271,431.213562 687.740112,431.213562 
	C687.740112,429.476593 687.741394,427.903412 687.739929,426.330200 
	C687.713135,397.524597 687.675049,368.718964 687.692017,339.913391 
	C687.692871,338.487244 688.172729,337.061401 688.926270,335.524017 
z"/>
<path fill="#040404" opacity="1.000000" stroke="none" 
	d="
M1209.486328,374.347473 
	C1226.649170,385.577789 1225.984985,411.287018 1217.877319,421.919952 
	C1210.398926,431.727417 1197.723511,436.343292 1185.926880,433.185333 
	C1174.732056,430.188446 1165.766479,419.216003 1164.471802,406.928070 
	C1162.721313,390.311401 1170.322998,376.330139 1183.673828,371.677399 
	C1192.544800,368.585876 1201.035889,369.662750 1209.486328,374.347473 
z"/>
<path fill="#070707" opacity="1.000000" stroke="none" 
	d="
M1333.239868,391.248230 
	C1322.331299,391.856262 1311.556274,392.057709 1300.780273,392.171936 
	C1293.989502,392.243927 1287.197510,392.185364 1280.377197,392.185364 
	C1281.574341,378.177856 1293.447144,369.736267 1305.253174,369.137421 
	C1320.341553,368.372009 1330.837158,376.478149 1333.239868,391.248230 
z"/>
<path fill="#040404" opacity="1.000000" stroke="none" 
	d="
M1068.879272,371.628052 
	C1081.434814,368.009033 1092.555298,369.684296 1101.154785,379.507111 
	C1110.336426,389.994812 1111.575562,402.355438 1106.830200,415.075653 
	C1102.568848,426.498230 1093.837158,432.966614 1081.662598,434.224762 
	C1065.229614,435.922943 1050.342529,423.335175 1048.944092,406.836914 
	C1047.516968,390.002899 1054.701172,377.130463 1068.879272,371.628052 
z"/>
<path fill="#070707" opacity="1.000000" stroke="none" 
	d="
M783.265930,494.526672 
	C787.793945,490.017181 791.508606,489.395081 795.375671,492.179718 
	C798.946777,494.751251 800.117920,500.402954 797.997925,504.834412 
	C796.250916,508.486359 791.999573,510.228088 787.846313,508.993591 
	C782.504639,507.405823 780.676270,502.002167 783.265930,494.526672 
z"/>
<path fill="#070707" opacity="1.000000" stroke="none" 
	d="
M972.017578,508.528442 
	C967.470093,510.127014 963.611938,509.720642 961.022522,505.849762 
	C958.497681,502.075043 958.569763,497.918823 960.992981,494.088104 
	C963.126831,490.714813 966.767334,489.463593 970.119446,491.050110 
	C972.615173,492.231293 975.148010,494.908478 976.065552,497.488098 
	C977.512207,501.555176 976.611938,505.741638 972.017578,508.528442 
z"/>
<path fill="#070707" opacity="1.000000" stroke="none" 
	d="
M876.969421,502.660034 
	C874.539978,502.818268 872.459351,502.818268 869.752625,502.818268 
	C871.036804,499.065063 872.087036,495.995850 873.137207,492.926605 
	C873.540527,492.857574 873.943848,492.788544 874.347229,492.719513 
	C875.337524,495.980255 876.327881,499.240997 876.969421,502.660034 
z"/>
<path fill="#070707" opacity="1.000000" stroke="none" 
	d="
M682.242920,499.754517 
	C681.918640,501.027283 681.555237,501.990692 680.976929,502.800568 
	C680.799194,503.049622 680.033936,502.894440 679.537537,502.897797 
	C678.231934,502.906586 676.926147,502.900757 674.954285,502.900757 
	C676.211792,499.090271 677.308777,495.766266 678.405762,492.442291 
	C678.756836,492.386353 679.107910,492.330414 679.458984,492.274475 
	C680.346313,494.644989 681.233704,497.015533 682.242920,499.754517 
z"/>
</svg>
